<svg xmlns="http://www.w3.org/2000/svg" viewBox="0 0 800 500">
  <defs>
    <linearGradient id="headerGrad" x1="0%" y1="0%" x2="100%" y2="0%">
      <stop offset="0%" style="stop-color:#6366f1"/>
      <stop offset="100%" style="stop-color:#8b5cf6"/>
    </linearGradient>
  </defs>
  <rect width="800" height="500" fill="#0f172a"/><text x="400" y="35" text-anchor="middle" fill="#ffffff" font-family="system-ui" font-size="20" font-weight="bold">React Component Hierarchy</text><path d="M400 85 L400 105 L250 105 L250 125" stroke="#334155" stroke-width="1.5" fill="none"/><path d="M400 85 L400 105 L400 105 L400 125" stroke="#334155" stroke-width="1.5" fill="none"/><path d="M400 85 L400 105 L550 105 L550 125" stroke="#334155" stroke-width="1.5" fill="none"/><path d="M400 155 L400 175 L400 175 L400 195" stroke="#334155" stroke-width="1.5" fill="none"/><path d="M400 225 L400 245 L200 245 L200 265" stroke="#334155" stroke-width="1.5" fill="none"/><path d="M400 225 L400 245 L400 245 L400 265" stroke="#334155" stroke-width="1.5" fill="none"/><path d="M400 225 L400 245 L600 245 L600 265" stroke="#334155" stroke-width="1.5" fill="none"/><path d="M200 295 L200 315 L150 315 L150 335" stroke="#334155" stroke-width="1.5" fill="none"/><path d="M200 295 L200 315 L250 315 L250 335" stroke="#334155" stroke-width="1.5" fill="none"/><path d="M400 295 L400 315 L400 315 L400 335" stroke="#334155" stroke-width="1.5" fill="none"/><path d="M600 295 L600 315 L550 315 L550 335" stroke="#334155" stroke-width="1.5" fill="none"/><path d="M600 295 L600 315 L650 315 L650 335" stroke="#334155" stroke-width="1.5" fill="none"/><rect x="378" y="55" width="44" height="30" rx="6" fill="#1e293b" stroke="#6366f1"/><text x="400" y="75" text-anchor="middle" fill="#ffffff" font-family="system-ui" font-size="10" font-weight="normal">App</text><rect x="164" y="125" width="172" height="30" rx="6" fill="#1e293b" stroke="#8b5cf6"/><text x="250" y="145" text-anchor="middle" fill="#ffffff" font-family="system-ui" font-size="10" font-weight="normal">QueryClientProvider</text><rect x="342" y="125" width="116" height="30" rx="6" fill="#1e293b" stroke="#8b5cf6"/><text x="400" y="145" text-anchor="middle" fill="#ffffff" font-family="system-ui" font-size="10" font-weight="normal">AuthProvider</text><rect x="488" y="125" width="124" height="30" rx="6" fill="#1e293b" stroke="#8b5cf6"/><text x="550" y="145" text-anchor="middle" fill="#ffffff" font-family="system-ui" font-size="10" font-weight="normal">ThemeProvider</text><rect x="338" y="195" width="124" height="30" rx="6" fill="#1e293b" stroke="#3b82f6"/><text x="400" y="215" text-anchor="middle" fill="#ffffff" font-family="system-ui" font-size="10" font-weight="normal">BrowserRouter</text><rect x="150" y="265" width="100" height="30" rx="6" fill="#1e293b" stroke="#22c55e"/><text x="200" y="285" text-anchor="middle" fill="#ffffff" font-family="system-ui" font-size="10" font-weight="normal">MainLayout</text><rect x="330" y="265" width="140" height="30" rx="6" fill="#1e293b" stroke="#22c55e"/><text x="400" y="285" text-anchor="middle" fill="#ffffff" font-family="system-ui" font-size="10" font-weight="normal">DashboardLayout</text><rect x="550" y="265" width="100" height="30" rx="6" fill="#1e293b" stroke="#22c55e"/><text x="600" y="285" text-anchor="middle" fill="#ffffff" font-family="system-ui" font-size="10" font-weight="normal">AuthLayout</text><rect x="124" y="335" width="52" height="30" rx="6" fill="#1e293b" stroke="#f59e0b"/><text x="150" y="355" text-anchor="middle" fill="#ffffff" font-family="system-ui" font-size="10" font-weight="normal">Home</text><rect x="208" y="335" width="84" height="30" rx="6" fill="#1e293b" stroke="#f59e0b"/><text x="250" y="355" text-anchor="middle" fill="#ffffff" font-family="system-ui" font-size="10" font-weight="normal">Projects</text><rect x="354" y="335" width="92" height="30" rx="6" fill="#1e293b" stroke="#f59e0b"/><text x="400" y="355" text-anchor="middle" fill="#ffffff" font-family="system-ui" font-size="10" font-weight="normal">Dashboard</text><rect x="520" y="335" width="60" height="30" rx="6" fill="#1e293b" stroke="#f59e0b"/><text x="550" y="355" text-anchor="middle" fill="#ffffff" font-family="system-ui" font-size="10" font-weight="normal">Login</text><rect x="608" y="335" width="84" height="30" rx="6" fill="#1e293b" stroke="#f59e0b"/><text x="650" y="355" text-anchor="middle" fill="#ffffff" font-family="system-ui" font-size="10" font-weight="normal">Register</text><rect x="30" y="400" width="120" height="145" rx="6" fill="#1e293b" stroke="#334155"/><rect x="45" y="414" width="12" height="12" rx="2" fill="#6366f1" stroke="#6366f1"/><text x="70" y="424" text-anchor="start" fill="#ffffff" font-family="system-ui" font-size="10" font-weight="normal">Root</text><rect x="45" y="439" width="12" height="12" rx="2" fill="#8b5cf6" stroke="#8b5cf6"/><text x="70" y="449" text-anchor="start" fill="#ffffff" font-family="system-ui" font-size="10" font-weight="normal">Providers</text><rect x="45" y="464" width="12" height="12" rx="2" fill="#3b82f6" stroke="#3b82f6"/><text x="70" y="474" text-anchor="start" fill="#ffffff" font-family="system-ui" font-size="10" font-weight="normal">Router</text><rect x="45" y="489" width="12" height="12" rx="2" fill="#22c55e" stroke="#22c55e"/><text x="70" y="499" text-anchor="start" fill="#ffffff" font-family="system-ui" font-size="10" font-weight="normal">Layouts</text><rect x="45" y="514" width="12" height="12" rx="2" fill="#f59e0b" stroke="#f59e0b"/><text x="70" y="524" text-anchor="start" fill="#ffffff" font-family="system-ui" font-size="10" font-weight="normal">Pages</text></svg>