<svg xmlns="http://www.w3.org/2000/svg" viewBox="0 0 800 600">
  <defs>
    <linearGradient id="headerGrad" x1="0%" y1="0%" x2="100%" y2="0%">
      <stop offset="0%" style="stop-color:#6366f1"/>
      <stop offset="100%" style="stop-color:#8b5cf6"/>
    </linearGradient>
  </defs>
  <rect width="800" height="600" fill="#0f172a"/><text x="400" y="40" text-anchor="middle" fill="#ffffff" font-family="system-ui" font-size="24" font-weight="bold">Technology Stack</text><rect x="100" y="80" width="600" height="100" rx="6" fill="#1e293b" stroke="#3b82f6"/><text x="120" y="105" text-anchor="start" fill="#3b82f6" font-family="system-ui" font-size="14" font-weight="bold">Frontend</text><rect x="120" y="120" width="102" height="45" rx="6" fill="#0f172a" stroke="#334155"/><text x="171" y="148" text-anchor="middle" fill="#ffffff" font-family="system-ui" font-size="10" font-weight="normal">React 18</text><rect x="232" y="120" width="102" height="45" rx="6" fill="#0f172a" stroke="#334155"/><text x="283" y="148" text-anchor="middle" fill="#ffffff" font-family="system-ui" font-size="10" font-weight="normal">TypeScript</text><rect x="344" y="120" width="102" height="45" rx="6" fill="#0f172a" stroke="#334155"/><text x="395" y="148" text-anchor="middle" fill="#ffffff" font-family="system-ui" font-size="10" font-weight="normal">Vite</text><rect x="456" y="120" width="102" height="45" rx="6" fill="#0f172a" stroke="#334155"/><text x="507" y="148" text-anchor="middle" fill="#ffffff" font-family="system-ui" font-size="10" font-weight="normal">Tailwind</text><rect x="568" y="120" width="102" height="45" rx="6" fill="#0f172a" stroke="#334155"/><text x="619" y="148" text-anchor="middle" fill="#ffffff" font-family="system-ui" font-size="10" font-weight="normal">React Query</text><path d="M400 180 L400 195" stroke="#94a3b8" stroke-width="2"/><text x="400" y="192" text-anchor="middle" fill="#94a3b8" font-family="system-ui" font-size="10" font-weight="normal">▼</text><rect x="100" y="200" width="600" height="100" rx="6" fill="#1e293b" stroke="#22c55e"/><text x="120" y="225" text-anchor="start" fill="#22c55e" font-family="system-ui" font-size="14" font-weight="bold">Hosting</text><rect x="120" y="240" width="176.66666666666666" height="45" rx="6" fill="#0f172a" stroke="#334155"/><text x="208.33333333333331" y="268" text-anchor="middle" fill="#ffffff" font-family="system-ui" font-size="10" font-weight="normal">Vercel Edge Network</text><rect x="306.66666666666663" y="240" width="176.66666666666666" height="45" rx="6" fill="#0f172a" stroke="#334155"/><text x="394.99999999999994" y="268" text-anchor="middle" fill="#ffffff" font-family="system-ui" font-size="10" font-weight="normal">CDN</text><rect x="493.3333333333333" y="240" width="176.66666666666666" height="45" rx="6" fill="#0f172a" stroke="#334155"/><text x="581.6666666666666" y="268" text-anchor="middle" fill="#ffffff" font-family="system-ui" font-size="10" font-weight="normal">Static Assets</text><path d="M400 300 L400 315" stroke="#94a3b8" stroke-width="2"/><text x="400" y="312" text-anchor="middle" fill="#94a3b8" font-family="system-ui" font-size="10" font-weight="normal">▼</text><rect x="100" y="320" width="600" height="100" rx="6" fill="#1e293b" stroke="#f59e0b"/><text x="120" y="345" text-anchor="start" fill="#f59e0b" font-family="system-ui" font-size="14" font-weight="bold">API Layer</text><rect x="120" y="360" width="270" height="45" rx="6" fill="#0f172a" stroke="#334155"/><text x="255" y="388" text-anchor="middle" fill="#ffffff" font-family="system-ui" font-size="10" font-weight="normal">Supabase Edge Functions</text><rect x="400" y="360" width="270" height="45" rx="6" fill="#0f172a" stroke="#334155"/><text x="535" y="388" text-anchor="middle" fill="#ffffff" font-family="system-ui" font-size="10" font-weight="normal">Deno Runtime</text><path d="M400 420 L400 435" stroke="#94a3b8" stroke-width="2"/><text x="400" y="432" text-anchor="middle" fill="#94a3b8" font-family="system-ui" font-size="10" font-weight="normal">▼</text><rect x="100" y="440" width="600" height="100" rx="6" fill="#1e293b" stroke="#ec4899"/><text x="120" y="465" text-anchor="start" fill="#ec4899" font-family="system-ui" font-size="14" font-weight="bold">Database</text><rect x="120" y="480" width="176.66666666666666" height="45" rx="6" fill="#0f172a" stroke="#334155"/><text x="208.33333333333331" y="508" text-anchor="middle" fill="#ffffff" font-family="system-ui" font-size="10" font-weight="normal">PostgreSQL</text><rect x="306.66666666666663" y="480" width="176.66666666666666" height="45" rx="6" fill="#0f172a" stroke="#334155"/><text x="394.99999999999994" y="508" text-anchor="middle" fill="#ffffff" font-family="system-ui" font-size="10" font-weight="normal">Row Level Security</text><rect x="493.3333333333333" y="480" width="176.66666666666666" height="45" rx="6" fill="#0f172a" stroke="#334155"/><text x="581.6666666666666" y="508" text-anchor="middle" fill="#ffffff" font-family="system-ui" font-size="10" font-weight="normal">Realtime</text></svg>