<svg xmlns="http://www.w3.org/2000/svg" viewBox="0 0 800 600">
  <defs>
    <linearGradient id="headerGrad" x1="0%" y1="0%" x2="100%" y2="0%">
      <stop offset="0%" style="stop-color:#6366f1"/>
      <stop offset="100%" style="stop-color:#8b5cf6"/>
    </linearGradient>
    <linearGradient id="boxGrad" x1="0%" y1="0%" x2="0%" y2="100%">
      <stop offset="0%" style="stop-color:#f8fafc"/>
      <stop offset="100%" style="stop-color:#e2e8f0"/>
    </linearGradient>
  </defs>

  <!-- Background -->
  <rect width="800" height="600" fill="#0f172a"/>

  <!-- Title -->
  <text x="400" y="40" text-anchor="middle" fill="white" font-family="system-ui" font-size="24" font-weight="bold">AlaweinOS Architecture</text>

  <!-- Client Layer -->
  <rect x="50" y="70" width="700" height="80" rx="8" fill="url(#headerGrad)" opacity="0.9"/>
  <text x="400" y="95" text-anchor="middle" fill="white" font-family="system-ui" font-size="14" font-weight="bold">CLIENT LAYER</text>

  <!-- Platforms -->
  <g transform="translate(70, 110)">
    <rect width="90" height="30" rx="4" fill="#1e293b" stroke="#6366f1"/>
    <text x="45" y="20" text-anchor="middle" fill="white" font-family="system-ui" font-size="11">SimCore</text>
  </g>
  <g transform="translate(170, 110)">
    <rect width="90" height="30" rx="4" fill="#1e293b" stroke="#6366f1"/>
    <text x="45" y="20" text-anchor="middle" fill="white" font-family="system-ui" font-size="11">REPZ</text>
  </g>
  <g transform="translate(270, 110)">
    <rect width="90" height="30" rx="4" fill="#1e293b" stroke="#6366f1"/>
    <text x="45" y="20" text-anchor="middle" fill="white" font-family="system-ui" font-size="11">QMLab</text>
  </g>
  <g transform="translate(370, 110)">
    <rect width="90" height="30" rx="4" fill="#1e293b" stroke="#6366f1"/>
    <text x="45" y="20" text-anchor="middle" fill="white" font-family="system-ui" font-size="11">LiveItIconic</text>
  </g>
  <g transform="translate(470, 110)">
    <rect width="90" height="30" rx="4" fill="#1e293b" stroke="#6366f1"/>
    <text x="45" y="20" text-anchor="middle" fill="white" font-family="system-ui" font-size="11">TalAI</text>
  </g>
  <g transform="translate(570, 110)">
    <rect width="90" height="30" rx="4" fill="#1e293b" stroke="#6366f1"/>
    <text x="45" y="20" text-anchor="middle" fill="white" font-family="system-ui" font-size="11">OptiLibria</text>
  </g>

  <!-- Arrow down -->
  <path d="M400 155 L400 175" stroke="#6366f1" stroke-width="2" marker-end="url(#arrow)"/>

  <!-- Frontend Layer -->
  <rect x="50" y="180" width="700" height="100" rx="8" fill="#1e293b" stroke="#334155"/>
  <text x="400" y="200" text-anchor="middle" fill="#94a3b8" font-family="system-ui" font-size="12" font-weight="bold">FRONTEND (Vercel)</text>

  <g transform="translate(80, 215)">
    <rect width="120" height="50" rx="4" fill="#0f172a" stroke="#3b82f6"/>
    <text x="60" y="20" text-anchor="middle" fill="#60a5fa" font-family="system-ui" font-size="10">React + Vite</text>
    <text x="60" y="38" text-anchor="middle" fill="#94a3b8" font-family="system-ui" font-size="9">TypeScript</text>
  </g>
  <g transform="translate(220, 215)">
    <rect width="120" height="50" rx="4" fill="#0f172a" stroke="#3b82f6"/>
    <text x="60" y="20" text-anchor="middle" fill="#60a5fa" font-family="system-ui" font-size="10">React Query</text>
    <text x="60" y="38" text-anchor="middle" fill="#94a3b8" font-family="system-ui" font-size="9">Server State</text>
  </g>
  <g transform="translate(360, 215)">
    <rect width="120" height="50" rx="4" fill="#0f172a" stroke="#3b82f6"/>
    <text x="60" y="20" text-anchor="middle" fill="#60a5fa" font-family="system-ui" font-size="10">Tailwind CSS</text>
    <text x="60" y="38" text-anchor="middle" fill="#94a3b8" font-family="system-ui" font-size="9">Design System</text>
  </g>
  <g transform="translate(500, 215)">
    <rect width="120" height="50" rx="4" fill="#0f172a" stroke="#3b82f6"/>
    <text x="60" y="20" text-anchor="middle" fill="#60a5fa" font-family="system-ui" font-size="10">React Router</text>
    <text x="60" y="38" text-anchor="middle" fill="#94a3b8" font-family="system-ui" font-size="9">Navigation</text>
  </g>
  <g transform="translate(640, 215)">
    <rect width="90" height="50" rx="4" fill="#0f172a" stroke="#3b82f6"/>
    <text x="45" y="20" text-anchor="middle" fill="#60a5fa" font-family="system-ui" font-size="10">Shadcn/ui</text>
    <text x="45" y="38" text-anchor="middle" fill="#94a3b8" font-family="system-ui" font-size="9">Components</text>
  </g>

  <!-- Arrow down -->
  <path d="M400 285 L400 305" stroke="#22c55e" stroke-width="2"/>

  <!-- API Layer -->
  <rect x="50" y="310" width="700" height="80" rx="8" fill="#1e293b" stroke="#334155"/>
  <text x="400" y="330" text-anchor="middle" fill="#94a3b8" font-family="system-ui" font-size="12" font-weight="bold">API LAYER (Supabase Edge Functions)</text>

  <g transform="translate(80, 345)">
    <rect width="100" height="35" rx="4" fill="#0f172a" stroke="#22c55e"/>
    <text x="50" y="22" text-anchor="middle" fill="#4ade80" font-family="system-ui" font-size="10">simcore-api</text>
  </g>
  <g transform="translate(190, 345)">
    <rect width="100" height="35" rx="4" fill="#0f172a" stroke="#22c55e"/>
    <text x="50" y="22" text-anchor="middle" fill="#4ade80" font-family="system-ui" font-size="10">repz-api</text>
  </g>
  <g transform="translate(300, 345)">
    <rect width="100" height="35" rx="4" fill="#0f172a" stroke="#22c55e"/>
    <text x="50" y="22" text-anchor="middle" fill="#4ade80" font-family="system-ui" font-size="10">qmlab-api</text>
  </g>
  <g transform="translate(410, 345)">
    <rect width="100" height="35" rx="4" fill="#0f172a" stroke="#22c55e"/>
    <text x="50" y="22" text-anchor="middle" fill="#4ade80" font-family="system-ui" font-size="10">liveiticonic-api</text>
  </g>
  <g transform="translate(520, 345)">
    <rect width="100" height="35" rx="4" fill="#0f172a" stroke="#22c55e"/>
    <text x="50" y="22" text-anchor="middle" fill="#4ade80" font-family="system-ui" font-size="10">talai-api</text>
  </g>
  <g transform="translate(630, 345)">
    <rect width="100" height="35" rx="4" fill="#0f172a" stroke="#22c55e"/>
    <text x="50" y="22" text-anchor="middle" fill="#4ade80" font-family="system-ui" font-size="10">optilibria-api</text>
  </g>

  <!-- Arrow down -->
  <path d="M400 395 L400 415" stroke="#f59e0b" stroke-width="2"/>

  <!-- Database Layer -->
  <rect x="50" y="420" width="700" height="100" rx="8" fill="#1e293b" stroke="#334155"/>
  <text x="400" y="440" text-anchor="middle" fill="#94a3b8" font-family="system-ui" font-size="12" font-weight="bold">DATA LAYER (Supabase PostgreSQL)</text>

  <g transform="translate(80, 455)">
    <rect width="140" height="50" rx="4" fill="#0f172a" stroke="#f59e0b"/>
    <text x="70" y="20" text-anchor="middle" fill="#fbbf24" font-family="system-ui" font-size="10">PostgreSQL</text>
    <text x="70" y="38" text-anchor="middle" fill="#94a3b8" font-family="system-ui" font-size="9">+ Row Level Security</text>
  </g>
  <g transform="translate(240, 455)">
    <rect width="140" height="50" rx="4" fill="#0f172a" stroke="#f59e0b"/>
    <text x="70" y="20" text-anchor="middle" fill="#fbbf24" font-family="system-ui" font-size="10">Auth</text>
    <text x="70" y="38" text-anchor="middle" fill="#94a3b8" font-family="system-ui" font-size="9">JWT + OAuth</text>
  </g>
  <g transform="translate(400, 455)">
    <rect width="140" height="50" rx="4" fill="#0f172a" stroke="#f59e0b"/>
    <text x="70" y="20" text-anchor="middle" fill="#fbbf24" font-family="system-ui" font-size="10">Storage</text>
    <text x="70" y="38" text-anchor="middle" fill="#94a3b8" font-family="system-ui" font-size="9">S3-compatible</text>
  </g>
  <g transform="translate(560, 455)">
    <rect width="140" height="50" rx="4" fill="#0f172a" stroke="#f59e0b"/>
    <text x="70" y="20" text-anchor="middle" fill="#fbbf24" font-family="system-ui" font-size="10">Realtime</text>
    <text x="70" y="38" text-anchor="middle" fill="#94a3b8" font-family="system-ui" font-size="9">WebSocket</text>
  </g>

  <!-- CI/CD Badge -->
  <rect x="50" y="540" width="150" height="40" rx="4" fill="#1e293b" stroke="#a855f7"/>
  <text x="125" y="565" text-anchor="middle" fill="#c084fc" font-family="system-ui" font-size="10">GitHub Actions CI/CD</text>

  <!-- Monitoring Badge -->
  <rect x="220" y="540" width="150" height="40" rx="4" fill="#1e293b" stroke="#ec4899"/>
  <text x="295" y="565" text-anchor="middle" fill="#f472b6" font-family="system-ui" font-size="10">Sentry Monitoring</text>

  <!-- Testing Badge -->
  <rect x="390" y="540" width="150" height="40" rx="4" fill="#1e293b" stroke="#14b8a6"/>
  <text x="465" y="565" text-anchor="middle" fill="#2dd4bf" font-family="system-ui" font-size="10">Vitest + Playwright</text>

  <!-- Docs Badge -->
  <rect x="560" y="540" width="150" height="40" rx="4" fill="#1e293b" stroke="#0ea5e9"/>
  <text x="635" y="565" text-anchor="middle" fill="#38bdf8" font-family="system-ui" font-size="10">MkDocs Documentation</text>
</svg>
